<?xml version="1.0" encoding="UTF-8" standalone="no"?>
<!DOCTYPE svg PUBLIC "-//W3C//DTD SVG 1.1//EN" "http://www.w3.org/Graphics/SVG/1.1/DTD/svg11.dtd">
<svg width="100%" height="100%" viewBox="0 0 742 287" version="1.1" xmlns="http://www.w3.org/2000/svg" xmlns:xlink="http://www.w3.org/1999/xlink" xml:space="preserve" xmlns:serif="http://www.serif.com/" style="fill-rule:evenodd;clip-rule:evenodd;stroke-linejoin:round;stroke-miterlimit:2;">
    <g transform="matrix(1,0,0,1,-878.357281,-246.559497)">
        <g transform="matrix(1.028222,0,0,1.028222,849.492088,66.624314)">
            <g transform="matrix(1,0,0,1,-0.598264,-0.450999)">
                <path d="M652.053,347.344C651.003,349.081 648.147,350.678 646.141,351.237C644.23,351.77 639.899,351.437 637.337,350.989C632,350.056 625.614,345.694 622.816,340.462C619.435,334.139 618.689,324.582 622.922,320.081C628.881,313.745 634.398,311.326 641.57,310.117C649.742,308.74 661.234,309.915 671.109,312.241C683.154,315.079 703.144,325.218 712.846,328.005C717.839,329.44 727.541,329.168 732.103,327.373C737.569,325.223 739.792,319.928 738.693,315.42C737.782,311.681 731.875,309.258 728.537,310.931C726.458,311.973 726.527,315.725 722.74,318.077C720.255,319.621 716.07,316.078 716.884,312.565C717.945,307.988 720.322,306.84 721.778,305.697C724.231,303.77 727.53,302.956 730.458,302.774C735.348,302.47 739.679,303.972 743.042,306.383C745.9,308.43 748.401,310.895 749.53,316.049C751.046,322.97 748.244,329.134 745.659,332.635C743.532,335.513 737.347,340.22 732.17,341.993C726.847,343.817 719.773,344.268 713.721,343.574C705.485,342.629 698.982,338.57 691.53,334.427C685.316,330.972 674.017,323.693 668.56,321.788C664.774,320.466 655.563,316.05 654.269,316.832C652.976,317.614 659.914,321.572 660.8,326.479C661.956,332.879 659.514,338.031 652.696,339.572C648.287,340.568 638.865,338.921 638.118,332.91C637.785,330.237 639.528,327.636 641.967,327.021C645.382,326.161 647.505,333.021 651.239,332.081C652.981,331.642 653.617,327.719 652.678,325.78C651.044,322.409 648.798,317.935 638.844,318.158C635.161,318.241 629.811,321.051 628.384,324.356C626.292,329.201 625.979,334.928 629.141,339.31C629.944,340.422 631.712,342.545 633.191,343.705C634.51,344.739 636.128,345.613 638.02,346.271C639.786,346.884 643.448,347.382 645.33,347.406C647.45,347.433 652.053,347.344 652.053,347.344Z" style="fill:rgb(26,6,0);"/>
            </g>
            <path d="M349.058,449.57C349.058,449.57 352.529,453.021 355.443,453.742C358.445,454.484 364.562,452.846 367.505,451.545C370.95,450.022 372.688,448.51 375.932,445.172C378.524,442.505 381.109,436.038 383.304,434.28C387.798,430.68 394.863,427.236 400,426.401C405.137,425.566 410.498,427.581 414.128,429.268C416.215,430.237 420.369,434.927 420.458,437.964C420.548,441.001 418.139,445.445 416.273,446.685C414.663,447.754 411.462,447.173 410.705,446.367C409.948,445.562 412.228,443.092 411.73,441.85C411.231,440.608 409.258,438.528 407.713,438.914C406.168,439.301 401.062,442.49 400.934,444.73C400.805,446.97 404.24,451.045 406.941,452.355C409.641,453.664 414.485,453.333 417.137,452.587C419.514,451.917 422.122,450.033 423.456,447.955C424.885,445.728 425.733,442.229 425.711,439.223C425.688,435.991 423.317,428.564 423.317,428.564C423.317,428.564 426.002,430.376 429.053,432.601C431.958,434.72 440.756,441.99 444.037,443.107C449.575,444.991 453.47,445.034 458.265,444.401C463.059,443.768 468.764,441.623 471.115,438.403C473.466,435.182 474.735,430.563 473.399,427.425C472.064,424.287 467.135,420.563 462.097,420.579C456.065,420.598 453.997,424.63 453.424,426.426C452.851,428.222 453.817,430.479 456.893,430.202C458.779,430.032 460.152,426.78 461.68,426.888C463.207,426.996 465.916,427.835 466.698,430.639C467.227,432.531 463.866,436.194 460.477,437.696C455.43,439.934 448.234,438.249 442.485,434.348C437.085,430.684 430.936,425.504 425.005,423.881C418.125,421.998 408.147,420.742 402.429,421.281C399.064,421.598 394.565,422.853 392.58,423.686C390.059,424.746 387.017,426.938 385.45,428.061C383.798,429.245 383.303,430.462 382.621,429.567C380.144,426.312 380.798,421.163 373.697,415.815C368.495,411.897 360.754,408.471 349.445,408.927C337.561,409.405 317.733,416.575 301.552,423.362C291.697,427.496 282.775,430.73 276.2,431.665C269.2,432.661 263.619,428.229 261.809,426.218C259.998,424.206 259.062,420.342 259.992,418.004C260.922,415.665 261.864,412.744 267.387,412.186C272.088,411.71 272.975,415.407 273.667,417.122C274.25,418.57 275.789,419.475 277.011,419.428C279.754,419.322 281.425,418.074 281.559,416.439C281.726,414.393 281.418,409.56 279.309,406.78C274.458,400.382 262.799,400.602 257.552,404.213C250.926,408.773 248.693,413.786 247.626,419.256C246.616,424.428 247.477,434.024 255.214,439.449C263.726,445.417 274.179,446.058 283.592,444.988C293.506,443.86 315.592,431.791 315.592,431.791L345.614,417.61L344.699,418.711C344.699,418.711 338.347,424.785 338.579,429.934C338.76,433.942 339.317,435.377 341.943,438.476C345.622,442.818 353.024,442.62 357.663,440.72C360.823,439.426 362.562,435.613 362.813,433.451C363.065,431.288 360.969,428.639 359.546,428.293C355.605,427.335 354.953,430.21 354.214,431.64C352.658,434.653 346.711,434.476 347.134,430.02C347.301,428.251 349.401,425.482 350.695,424.315C352.226,422.935 354.328,421.193 356.351,420.719C358.118,420.306 363.802,419.034 368.05,421.129C370.794,422.482 373.112,426.504 373.584,429.527C374.137,433.072 373.475,438.178 371.413,441.447C369.351,444.715 365.138,446.856 361.404,448.185C357.937,449.419 349.058,449.57 349.058,449.57Z" style="fill:rgb(26,6,0);"/>
            <path d="M172.901,369.154C174.007,371.867 176.541,373.715 179.527,375.069C183.123,376.699 190.683,376.865 197.553,374.106C205.155,371.053 216.923,361.274 218.632,352.617C221.172,339.754 217.748,330.515 209.36,324.542C202.192,319.438 191.934,314.773 182.303,314.308C169.873,313.708 149.692,315.156 134.781,320.943C117.593,327.614 93.895,338.98 79.699,342.729C59.114,348.165 48.826,337.031 47.664,334.036C45.786,329.199 46.376,321.904 50.965,318.824C55.17,316.002 59.641,317.311 62.781,319.162C65.652,320.856 64.423,328.036 69.602,328.086C75.003,328.137 75.878,323.235 75.905,319.916C75.935,316.36 73.697,310.832 69.252,307.872C64.369,304.619 54.466,301.956 44.674,306.539C37.647,309.828 28.324,318.044 28.08,329.594C27.828,341.481 34.479,351.531 43.185,357.266C51.663,362.851 73.002,365.429 85.227,362.392C101.706,358.297 152.584,332.32 166.575,326.249C167.374,325.902 169.851,325.416 169.173,325.964C162.086,331.691 159.374,336.889 158.543,341.999C157.822,346.43 158.273,352.342 164.186,356.624C171.34,361.803 177.305,360.837 181.453,359.787C185.302,358.813 187.733,357.22 189.794,354.807C192.619,351.502 192.919,347.142 192.232,344.361C191.545,341.579 187.658,338.678 182.814,340.379C179.624,341.499 181.04,349.838 174.079,348.621C169.004,347.733 169.927,340.523 171.567,337.874C172.946,335.647 176.705,332.339 180.185,331.042C184.148,329.566 188.794,327.825 195.345,329.018C200.839,330.018 206.034,333.991 207.679,339.278C213.77,358.853 189.069,370.348 172.901,369.154Z" style="fill:rgb(26,6,0);"/>
            <path d="M520.4,230.751C533.055,228.76 539.179,226.745 543.168,225.273C549.926,222.779 553.536,215.792 555.773,209.58C555.773,209.58 560.412,199.893 564.54,194.657C568.139,190.094 575.547,184.718 583.063,187.122C584.487,187.577 585.511,190.101 585.514,191.073C585.517,192.045 583.623,195.121 583.081,192.953C581.974,188.526 577.432,191.482 577.432,191.482C575.369,193.657 576.911,201.546 585.572,199.864C589.024,199.194 592.969,195.324 592.076,190.736C591.152,185.986 588.005,182.474 583.87,181.629C574.483,179.709 569.018,184.881 563.453,188.84C563.014,189.152 559.809,192.509 559.809,192.509C560.079,189.073 554.187,175.965 540.413,175.041C532.526,174.512 525.956,178.78 522.772,182.083C519.797,185.169 519.855,191.822 521.306,194.859C522.55,197.465 525.252,199.81 527.977,200.955C530.701,202.1 535.25,202.327 537.653,201.729C539.832,201.187 542.21,198.947 542.757,196.577C543.662,192.654 541.356,188.261 538.112,189.787C534.352,191.555 537.449,195.219 535.644,195.788C533.721,196.394 527.152,196.902 526.891,189.34C526.709,184.058 533.259,179.242 539.725,179.685C550.109,180.397 552.722,187.717 554.886,192.884C555.516,194.388 555.604,197.723 555.604,197.723C555.604,197.723 556.012,207.166 550.163,208.315C529.291,207.638 523.825,219.674 520.4,230.751Z" style="fill:rgb(26,6,0);"/>
            <path d="M339.231,278.614C340.656,278.02 342.094,277.245 342.879,275.484C342.879,275.484 341.656,267.569 339.912,264.032C338.136,260.429 334.955,255.845 328.208,250.55C324.175,247.384 314.747,243.463 314.127,242.931C311.352,240.545 306.718,237.889 300.911,236.899C293.329,235.607 279.704,236.793 271.969,235.343C268.751,234.739 263.847,232.644 261.233,230.23C258.638,227.834 255.359,223.37 256.284,220.859C258.515,214.799 264.277,216.575 265.81,217.414C268.868,219.087 265.002,220.54 266.543,223.003C267.819,225.042 271.041,224.641 272.016,224.046C273.018,223.433 273.928,222.28 274.139,221.095C275.194,215.184 267.223,210.454 262.945,209.609C255.779,208.194 250.712,211.889 248.845,217.137C247.272,221.556 247.826,225.396 250.32,229.549C252.928,233.893 260.48,240.266 270.06,242.628C276.353,244.179 288.241,243.292 292.683,243.248C295.263,243.222 300.411,243.677 300.411,243.677C294.414,247.077 291.668,251.604 290.197,256.308C287.79,264.011 293.641,271.19 298.073,273.157C300.52,274.242 302.869,274.357 305.494,274.045C308.119,273.733 310.009,273.193 311.612,271.601C313.215,270.008 313.41,265.881 312.56,264.2C311.711,262.518 310.561,261.412 308.728,261.194C307.274,261.021 305.591,262.42 304.987,263.327C304.383,264.234 305.221,266.459 304.598,267.161C303.975,267.863 302.199,267.869 300.957,267.15C299.64,266.387 297.029,264.077 296.793,262.409C296.556,260.742 296.964,258.907 297.492,257.212C298.07,255.356 300.854,252.271 302.123,251.273C303.881,249.889 307.79,249.326 309.913,249.275C312.91,249.203 317.408,249.658 320.102,250.842C321.285,251.362 323.817,252.541 325.347,253.854C326.097,254.497 331.652,258.842 333.711,261.527C335.601,263.992 336.739,267.095 337.698,269.961C338.657,272.828 339.231,278.614 339.231,278.614Z" style="fill:rgb(26,6,0);"/>
            <g transform="matrix(1,0,0,1,208.305138,-273.999522)">
                <g transform="matrix(133.333333,0,0,133.333333,376.142958,568.275609)">
                </g>
                <text x="141.61px" y="568.276px" style="font-family:'LighthousePersonalUse', 'Lighthouse Personal Use';font-size:133.333px;fill:rgb(26,6,0);">Boja</text>
            </g>
            <g transform="matrix(1,0,0,1,82.225699,-186.015421)">
                <g transform="matrix(133.333333,0,0,133.333333,521.876291,568.275609)">
                </g>
                <text x="141.61px" y="568.276px" style="font-family:'LighthousePersonalUse', 'Lighthouse Personal Use';font-size:133.333px;fill:rgb(26,6,0);">Mengaji</text>
            </g>
        </g>
        <g transform="matrix(1.028222,0,0,1.028222,849.492088,66.624314)">
            <g transform="matrix(1,0,0,1,-0.598264,-0.450999)">
                <path d="M652.053,347.344C651.003,349.081 648.147,350.678 646.141,351.237C644.23,351.77 639.899,351.437 637.337,350.989C632,350.056 625.614,345.694 622.816,340.462C619.435,334.139 618.689,324.582 622.922,320.081C628.881,313.745 634.398,311.326 641.57,310.117C649.742,308.74 661.234,309.915 671.109,312.241C683.154,315.079 703.144,325.218 712.846,328.005C717.839,329.44 727.541,329.168 732.103,327.373C737.569,325.223 739.792,319.928 738.693,315.42C737.782,311.681 731.875,309.258 728.537,310.931C726.458,311.973 726.527,315.725 722.74,318.077C720.255,319.621 716.07,316.078 716.884,312.565C717.945,307.988 720.322,306.84 721.778,305.697C724.231,303.77 727.53,302.956 730.458,302.774C735.348,302.47 739.679,303.972 743.042,306.383C745.9,308.43 748.401,310.895 749.53,316.049C751.046,322.97 748.244,329.134 745.659,332.635C743.532,335.513 737.347,340.22 732.17,341.993C726.847,343.817 719.773,344.268 713.721,343.574C705.485,342.629 698.982,338.57 691.53,334.427C685.316,330.972 674.017,323.693 668.56,321.788C664.774,320.466 655.563,316.05 654.269,316.832C652.976,317.614 659.914,321.572 660.8,326.479C661.956,332.879 659.514,338.031 652.696,339.572C648.287,340.568 638.865,338.921 638.118,332.91C637.785,330.237 639.528,327.636 641.967,327.021C645.382,326.161 647.505,333.021 651.239,332.081C652.981,331.642 653.617,327.719 652.678,325.78C651.044,322.409 648.798,317.935 638.844,318.158C635.161,318.241 629.811,321.051 628.384,324.356C626.292,329.201 625.979,334.928 629.141,339.31C629.944,340.422 631.712,342.545 633.191,343.705C634.51,344.739 636.128,345.613 638.02,346.271C639.786,346.884 643.448,347.382 645.33,347.406C647.45,347.433 652.053,347.344 652.053,347.344Z" style="fill:rgb(26,6,0);"/>
            </g>
            <path d="M349.058,449.57C349.058,449.57 352.529,453.021 355.443,453.742C358.445,454.484 364.562,452.846 367.505,451.545C370.95,450.022 372.688,448.51 375.932,445.172C378.524,442.505 381.109,436.038 383.304,434.28C387.798,430.68 394.863,427.236 400,426.401C405.137,425.566 410.498,427.581 414.128,429.268C416.215,430.237 420.369,434.927 420.458,437.964C420.548,441.001 418.139,445.445 416.273,446.685C414.663,447.754 411.462,447.173 410.705,446.367C409.948,445.562 412.228,443.092 411.73,441.85C411.231,440.608 409.258,438.528 407.713,438.914C406.168,439.301 401.062,442.49 400.934,444.73C400.805,446.97 404.24,451.045 406.941,452.355C409.641,453.664 414.485,453.333 417.137,452.587C419.514,451.917 422.122,450.033 423.456,447.955C424.885,445.728 425.733,442.229 425.711,439.223C425.688,435.991 423.317,428.564 423.317,428.564C423.317,428.564 426.002,430.376 429.053,432.601C431.958,434.72 440.756,441.99 444.037,443.107C449.575,444.991 453.47,445.034 458.265,444.401C463.059,443.768 468.764,441.623 471.115,438.403C473.466,435.182 474.735,430.563 473.399,427.425C472.064,424.287 467.135,420.563 462.097,420.579C456.065,420.598 453.997,424.63 453.424,426.426C452.851,428.222 453.817,430.479 456.893,430.202C458.779,430.032 460.152,426.78 461.68,426.888C463.207,426.996 465.916,427.835 466.698,430.639C467.227,432.531 463.866,436.194 460.477,437.696C455.43,439.934 448.234,438.249 442.485,434.348C437.085,430.684 430.936,425.504 425.005,423.881C418.125,421.998 408.147,420.742 402.429,421.281C399.064,421.598 394.565,422.853 392.58,423.686C390.059,424.746 387.017,426.938 385.45,428.061C383.798,429.245 383.303,430.462 382.621,429.567C380.144,426.312 380.798,421.163 373.697,415.815C368.495,411.897 360.754,408.471 349.445,408.927C337.561,409.405 317.733,416.575 301.552,423.362C291.697,427.496 282.775,430.73 276.2,431.665C269.2,432.661 263.619,428.229 261.809,426.218C259.998,424.206 259.062,420.342 259.992,418.004C260.922,415.665 261.864,412.744 267.387,412.186C272.088,411.71 272.975,415.407 273.667,417.122C274.25,418.57 275.789,419.475 277.011,419.428C279.754,419.322 281.425,418.074 281.559,416.439C281.726,414.393 281.418,409.56 279.309,406.78C274.458,400.382 262.799,400.602 257.552,404.213C250.926,408.773 248.693,413.786 247.626,419.256C246.616,424.428 247.477,434.024 255.214,439.449C263.726,445.417 274.179,446.058 283.592,444.988C293.506,443.86 315.592,431.791 315.592,431.791L345.614,417.61L344.699,418.711C344.699,418.711 338.347,424.785 338.579,429.934C338.76,433.942 339.317,435.377 341.943,438.476C345.622,442.818 353.024,442.62 357.663,440.72C360.823,439.426 362.562,435.613 362.813,433.451C363.065,431.288 360.969,428.639 359.546,428.293C355.605,427.335 354.953,430.21 354.214,431.64C352.658,434.653 346.711,434.476 347.134,430.02C347.301,428.251 349.401,425.482 350.695,424.315C352.226,422.935 354.328,421.193 356.351,420.719C358.118,420.306 363.802,419.034 368.05,421.129C370.794,422.482 373.112,426.504 373.584,429.527C374.137,433.072 373.475,438.178 371.413,441.447C369.351,444.715 365.138,446.856 361.404,448.185C357.937,449.419 349.058,449.57 349.058,449.57Z" style="fill:rgb(26,6,0);"/>
            <path d="M172.901,369.154C174.007,371.867 176.541,373.715 179.527,375.069C183.123,376.699 190.683,376.865 197.553,374.106C205.155,371.053 216.351,361.141 218.632,352.617C220.862,344.285 191.934,314.773 182.303,314.308C169.873,313.708 149.692,315.156 134.781,320.943C117.593,327.614 93.895,338.98 79.699,342.729C59.114,348.165 48.826,337.031 47.664,334.036C45.786,329.199 46.376,321.904 50.965,318.824C55.17,316.002 59.641,317.311 62.781,319.162C65.652,320.856 64.423,328.036 69.602,328.086C75.003,328.137 75.878,323.235 75.905,319.916C75.935,316.36 73.697,310.832 69.252,307.872C64.369,304.619 54.466,301.956 44.674,306.539C37.647,309.828 28.324,318.044 28.08,329.594C27.828,341.481 34.479,351.531 43.185,357.266C51.663,362.851 73.002,365.429 85.227,362.392C101.706,358.297 152.584,332.32 166.575,326.249C167.374,325.902 169.851,325.416 169.173,325.964C162.086,331.691 159.374,336.889 158.543,341.999C157.822,346.43 158.273,352.342 164.186,356.624C171.34,361.803 177.305,360.837 181.453,359.787C185.302,358.813 187.733,357.22 189.794,354.807C192.619,351.502 192.919,347.142 192.232,344.361C191.545,341.579 187.658,338.678 182.814,340.379C179.624,341.499 181.04,349.838 174.079,348.621C169.004,347.733 169.927,340.523 171.567,337.874C172.946,335.647 176.705,332.339 180.185,331.042C184.148,329.566 188.794,327.825 195.345,329.018C200.839,330.018 206.034,333.991 207.679,339.278C213.77,358.853 189.069,370.348 172.901,369.154Z" style="fill:rgb(26,6,0);"/>
            <path d="M520.4,230.751C533.055,228.76 539.179,226.745 543.168,225.273C549.926,222.779 553.536,215.792 555.773,209.58C555.773,209.58 560.412,199.893 564.54,194.657C568.139,190.094 575.547,184.718 583.063,187.122C584.487,187.577 585.511,190.101 585.514,191.073C585.517,192.045 583.623,195.121 583.081,192.953C581.974,188.526 577.432,191.482 577.432,191.482C575.369,193.657 576.911,201.546 585.572,199.864C589.024,199.194 592.969,195.324 592.076,190.736C591.152,185.986 588.005,182.474 583.87,181.629C574.483,179.709 569.018,184.881 563.453,188.84C563.014,189.152 559.809,192.509 559.809,192.509C560.079,189.073 554.187,175.965 540.413,175.041C532.526,174.512 525.956,178.78 522.772,182.083C519.797,185.169 519.855,191.822 521.306,194.859C522.55,197.465 525.252,199.81 527.977,200.955C530.701,202.1 535.25,202.327 537.653,201.729C539.832,201.187 542.21,198.947 542.757,196.577C543.662,192.654 541.356,188.261 538.112,189.787C534.352,191.555 537.449,195.219 535.644,195.788C533.721,196.394 527.152,196.902 526.891,189.34C526.709,184.058 533.259,179.242 539.725,179.685C550.109,180.397 552.722,187.717 554.886,192.884C555.516,194.388 555.604,197.723 555.604,197.723C555.604,197.723 556.012,207.166 550.163,208.315C529.291,207.638 523.825,219.674 520.4,230.751Z" style="fill:rgb(26,6,0);"/>
            <path d="M339.231,278.614C340.656,278.02 342.094,277.245 342.879,275.484C342.879,275.484 341.656,267.569 339.912,264.032C338.136,260.429 334.955,255.845 328.208,250.55C324.175,247.384 314.747,243.463 314.127,242.931C311.352,240.545 306.718,237.889 300.911,236.899C293.329,235.607 279.704,236.793 271.969,235.343C268.751,234.739 263.847,232.644 261.233,230.23C258.638,227.834 255.359,223.37 256.284,220.859C258.515,214.799 264.277,216.575 265.81,217.414C268.868,219.087 265.002,220.54 266.543,223.003C267.819,225.042 271.041,224.641 272.016,224.046C273.018,223.433 273.928,222.28 274.139,221.095C275.194,215.184 267.223,210.454 262.945,209.609C255.779,208.194 250.712,211.889 248.845,217.137C247.272,221.556 247.826,225.396 250.32,229.549C252.928,233.893 260.48,240.266 270.06,242.628C276.353,244.179 288.241,243.292 292.683,243.248C295.263,243.222 300.411,243.677 300.411,243.677C294.414,247.077 291.668,251.604 290.197,256.308C287.79,264.011 293.641,271.19 298.073,273.157C300.52,274.242 302.869,274.357 305.494,274.045C308.119,273.733 310.009,273.193 311.612,271.601C313.215,270.008 313.41,265.881 312.56,264.2C311.711,262.518 310.561,261.412 308.728,261.194C307.274,261.021 305.591,262.42 304.987,263.327C304.383,264.234 305.221,266.459 304.598,267.161C303.975,267.863 302.199,267.869 300.957,267.15C299.64,266.387 297.029,264.077 296.793,262.409C296.556,260.742 296.964,258.907 297.492,257.212C298.07,255.356 300.854,252.271 302.123,251.273C303.881,249.889 307.79,249.326 309.913,249.275C312.91,249.203 317.408,249.658 320.102,250.842C321.285,251.362 323.817,252.541 325.347,253.854C326.097,254.497 331.652,258.842 333.711,261.527C335.601,263.992 336.739,267.095 337.698,269.961C338.657,272.828 339.231,278.614 339.231,278.614Z" style="fill:rgb(26,6,0);"/>
            <g transform="matrix(1,0,0,1,208.305138,-273.999522)">
                <g transform="matrix(133.333333,0,0,133.333333,376.142958,568.275609)">
                </g>
                <text x="141.61px" y="568.276px" style="font-family:'LighthousePersonalUse', 'Lighthouse Personal Use';font-size:133.333px;fill:rgb(26,6,0);">Boja</text>
            </g>
            <g transform="matrix(1,0,0,1,82.225699,-186.015421)">
                <g transform="matrix(133.333333,0,0,133.333333,521.876291,568.275609)">
                </g>
                <text x="141.61px" y="568.276px" style="font-family:'LighthousePersonalUse', 'Lighthouse Personal Use';font-size:133.333px;fill:rgb(26,6,0);">Mengaji</text>
            </g>
        </g>
    </g>
</svg>
