<?xml version="1.0" encoding="UTF-8" standalone="no"?>
<!DOCTYPE svg PUBLIC "-//W3C//DTD SVG 1.1//EN" "http://www.w3.org/Graphics/SVG/1.1/DTD/svg11.dtd">
<svg width="100%" height="100%" viewBox="0 0 629 770" version="1.1" xmlns="http://www.w3.org/2000/svg" xmlns:xlink="http://www.w3.org/1999/xlink" xml:space="preserve" xmlns:serif="http://www.serif.com/" style="fill-rule:evenodd;clip-rule:evenodd;stroke-linecap:round;stroke-linejoin:round;stroke-miterlimit:1.5;">
    <g transform="matrix(1,0,0,1,-2342.070428,-1165.188988)">
        <g transform="matrix(1,0,0,1,1106.423285,979.542485)">
            <g transform="matrix(1,0,0,1,1154.630859,98.102379)">
                <path d="M500.602,521.735L540.04,521.735L540.04,590.248L584.973,590.248L584.973,480.503L662.614,402.958L584.973,325.221L584.973,213.559L473.45,213.559L396.028,136.041L318.414,213.559L207.73,213.559L207.73,324.107L129.504,402.236L207.73,480.559L207.73,590.248L250.698,590.248L250.698,521.735L290.226,521.735C290.372,506.446 291.818,435.722 306.1,401.898C323.401,360.924 393.508,278.872 393.508,278.872C393.508,278.872 466.625,360.844 484.527,401.898C499.731,436.762 500.581,508.042 500.602,521.735ZM322.539,521.735L468.279,521.735C468.046,508.397 466.393,443.917 455.942,416.61C443.534,384.19 394.093,330.567 394.093,330.567C394.093,330.567 346.243,384.5 334.252,416.857C324.411,443.412 322.784,507.255 322.539,521.735ZM302.496,179.981L395.048,87.544L487.371,179.981L618.015,179.981L618.015,310.788L709.722,402.609L618.015,494.202L618.015,623.814L488.242,623.814L395.69,716.251L303.368,623.814L172.723,623.814L172.723,493.007L81.016,401.186L172.723,309.594L172.723,179.981L302.496,179.981Z" style="fill:rgb(0,160,232);"/>
            </g>
            <g transform="matrix(1,0,0,1,1150,100)">
                <path d="M327.17,519.837C327.415,505.357 329.042,441.515 338.883,414.959C350.874,382.602 398.724,328.669 398.724,328.669C398.724,328.669 448.165,382.292 460.573,414.712C471.024,442.02 472.677,506.5 472.91,519.837L327.17,519.837Z" style="fill:white;"/>
            </g>
            <g transform="matrix(1,0,0,1,1150,100)">
                <path d="M505.233,519.837C505.212,506.145 504.361,434.865 489.158,400C471.255,358.946 398.139,276.974 398.139,276.974C398.139,276.974 328.032,359.026 310.731,400C296.449,433.824 295.002,504.548 294.857,519.837L255.329,519.837L255.329,588.351L212.361,588.351L212.361,478.661L134.135,400.338L212.361,322.209L212.361,211.662L323.045,211.662L400.659,134.144L478.081,211.662L589.604,211.662L589.604,323.323L667.245,401.061L589.604,478.606L589.604,588.351L544.671,588.351L544.671,519.837L505.233,519.837Z" style="fill:white;"/>
            </g>
            <g transform="matrix(1,0,0,1,1150,100)">
                <path d="M400,518.792L245.036,460.548C245.036,460.548 243.423,442.639 246.617,436.252C249.81,429.866 264.196,422.228 264.196,422.228L400,497.682L535.804,422.228C535.804,422.228 550.19,429.866 553.383,436.252C556.577,442.639 554.964,460.548 554.964,460.548L400,518.792Z" style="fill:rgb(0,160,232);stroke:rgb(0,160,232);stroke-width:0.83px;"/>
            </g>
            <g transform="matrix(1,0,0,1,1150,100)">
                <path d="M400,506.53L256.731,437.95C256.731,437.95 257.361,433.937 258.388,432.383C259.415,430.829 262.894,428.627 262.894,428.627L400,501.789L537.106,428.627C537.106,428.627 540.585,430.829 541.612,432.383C542.639,433.937 543.269,437.95 543.269,437.95L400,506.53Z" style="fill:white;stroke:rgb(0,160,232);stroke-width:0.83px;"/>
            </g>
            <g transform="matrix(0,-1.36257,1.154378,0,1262.78315,847.707611)">
                <path d="M390.782,218.857C382.517,223.849 375.807,235.55 375.807,248.807C375.807,262.063 382.517,273.764 390.782,278.756C374.253,278.756 360.833,265.336 360.833,248.807C360.833,232.277 374.253,218.857 390.782,218.857Z" style="fill:rgb(0,160,232);stroke:rgb(0,160,232);stroke-width:0.66px;"/>
            </g>
            <g transform="matrix(1.051012,0,0,1.051012,1116.763028,88.16741)">
                <path d="M412.209,188.361L416.073,200.252L428.577,200.252L418.461,207.602L422.325,219.493L412.209,212.144L402.094,219.493L405.958,207.602L395.842,200.252L408.346,200.252L412.209,188.361Z" style="fill:rgb(0,160,232);stroke:rgb(0,160,232);stroke-width:0.79px;"/>
            </g>
            <g transform="matrix(1,0,0,1,1004.367828,-8.333041)">
                <path d="M458.122,672.618L454.314,672.618C455.073,672.618 455.697,672.894 456.185,673.448C456.674,674.001 456.918,674.657 456.918,675.417C456.918,678.238 455.648,680.853 453.109,683.262C450.245,685.975 446.664,687.331 442.367,687.331C438.048,687.331 434.565,686.051 431.918,683.49C429.27,680.929 427.946,677.5 427.946,673.204L427.946,651.719L435.108,651.719L435.108,673.008C435.108,677.739 437.582,680.105 442.53,680.105C444.222,680.105 445.796,679.779 447.25,679.128C449.116,678.282 450.049,677.11 450.049,675.612C450.049,673.616 448.4,672.618 445.101,672.618L443.213,672.618L443.213,665.619L458.122,665.619L458.122,672.618Z" style="fill:white;"/>
            </g>
            <g transform="matrix(1,0,0,1,1004.367828,-8.333041)">
                <path d="M489.665,672.618L456.006,672.618L456.006,665.619L478.044,665.619L478.044,661.843C478.044,659.738 477.002,658.685 474.919,658.685L462.745,658.685L462.745,651.719L479.737,651.719C483.534,651.719 485.433,653.477 485.433,656.993L485.433,665.619L489.665,665.619L489.665,672.618ZM478.011,679.877C478.011,680.875 477.664,681.721 476.97,682.416C476.275,683.11 475.429,683.457 474.431,683.457C473.454,683.457 472.619,683.105 471.924,682.399C471.23,681.694 470.883,680.853 470.883,679.877C470.883,678.9 471.23,678.059 471.924,677.354C472.619,676.649 473.454,676.296 474.431,676.296C475.429,676.296 476.275,676.643 476.97,677.338C477.664,678.032 478.011,678.878 478.011,679.877Z" style="fill:white;"/>
            </g>
            <g transform="matrix(1,0,0,1,1004.367828,-8.333041)">
                <path d="M507.113,645.306C507.113,646.283 506.76,647.124 506.055,647.829C505.35,648.534 504.509,648.887 503.532,648.887C502.556,648.887 501.715,648.534 501.01,647.829C500.304,647.124 499.952,646.283 499.952,645.306C499.952,644.33 500.304,643.494 501.01,642.8C501.715,642.105 502.556,641.758 503.532,641.758C504.509,641.758 505.35,642.105 506.055,642.8C506.76,643.494 507.113,644.33 507.113,645.306ZM517.432,672.618L487.386,672.618L487.386,665.619L498.975,665.619L494.45,660.443C493.43,659.271 492.92,658.099 492.92,656.927C492.92,655.473 493.593,654.226 494.939,653.184C496.176,652.229 497.543,651.752 499.04,651.752L508.448,651.752C509.945,651.752 511.312,652.229 512.549,653.184C513.895,654.226 514.567,655.473 514.567,656.927C514.567,658.099 514.057,659.271 513.038,660.443L508.513,665.619L517.432,665.619L517.432,672.618ZM506.592,658.132L501.189,658.132L503.793,662.071L506.592,658.132Z" style="fill:white;"/>
            </g>
            <g transform="matrix(1,0,0,1,1004.367828,-8.333041)">
                <path d="M535.043,672.618L515.446,672.618L515.446,665.619L523.552,665.619L523.552,651.719L530.681,651.719L530.681,665.619L535.043,665.619L535.043,672.618ZM530.29,645.209C530.29,646.185 529.937,647.026 529.232,647.731C528.527,648.437 527.686,648.789 526.709,648.789C525.733,648.789 524.892,648.437 524.187,647.731C523.481,647.026 523.129,646.185 523.129,645.209C523.129,644.232 523.481,643.397 524.187,642.702C524.892,642.008 525.733,641.661 526.709,641.661C527.686,641.661 528.527,642.008 529.232,642.702C529.937,643.397 530.29,644.232 530.29,645.209Z" style="fill:white;"/>
            </g>
            <g transform="matrix(1,0,0,1,1004.367828,-8.333041)">
                <path d="M563.461,667.344C563.461,670.86 561.551,672.618 557.732,672.618L533.187,672.618L533.187,665.619L541.521,665.619L541.521,651.687L557.732,651.687C561.551,651.687 563.461,653.434 563.461,656.927L563.461,667.344ZM556.136,663.885L556.136,660.354C556.136,659.22 555.518,658.653 554.281,658.653L548.877,658.653L548.877,665.619L554.281,665.619C555.518,665.619 556.136,665.041 556.136,663.885Z" style="fill:white;"/>
            </g>
            <g transform="matrix(1,0,0,1,1004.367828,-8.333041)">
                <path d="M591.781,672.618L586.28,672.618C581.484,672.618 579.086,670.306 579.086,665.684L579.086,635.638L586.247,635.638L586.247,662.461C586.247,664.566 587.452,665.619 589.86,665.619L591.781,665.619L591.781,672.618Z" style="fill:white;"/>
            </g>
            <g transform="matrix(1,0,0,1,1004.367828,-8.333041)">
                <path d="M619.418,672.618L589.893,672.618L589.893,665.586L611.931,665.586L611.931,661.778C611.931,659.673 610.889,658.62 608.806,658.62L596.631,658.62L596.631,651.654L613.656,651.654C617.475,651.654 619.385,653.412 619.385,656.927L619.418,672.618ZM611.898,679.877C611.898,680.875 611.551,681.721 610.857,682.416C610.162,683.11 609.316,683.457 608.317,683.457C607.341,683.457 606.505,683.105 605.811,682.399C605.117,681.694 604.769,680.853 604.769,679.877C604.769,678.9 605.117,678.059 605.811,677.354C606.505,676.649 607.341,676.296 608.317,676.296C609.316,676.296 610.162,676.643 610.857,677.338C611.551,678.032 611.898,678.878 611.898,679.877Z" style="fill:white;"/>
            </g>
            <g transform="matrix(1,0,0,1,1004.367828,-8.333041)">
                <path d="M651.384,672.618L647.12,672.618L647.12,680.365C647.12,685.009 644.83,687.331 640.251,687.331L625.179,687.331L625.179,680.365L637.419,680.365C639.09,680.365 639.926,679.551 639.926,677.924L639.926,672.618L630.909,672.618C627.111,672.618 625.212,670.881 625.212,667.409L625.212,656.927C625.212,653.434 627.111,651.687 630.909,651.687L641.423,651.687C645.221,651.687 647.12,653.434 647.12,656.927L647.12,665.619L651.384,665.619L651.384,672.618ZM639.86,663.861L639.86,660.345C639.86,659.217 639.231,658.653 637.972,658.653L634.294,658.653C633.014,658.653 632.373,659.217 632.373,660.345L632.373,663.861C632.373,665.033 633.014,665.619 634.294,665.619L637.972,665.619C639.231,665.619 639.86,665.033 639.86,663.861Z" style="fill:white;"/>
            </g>
            <g transform="matrix(1,0,0,1,1004.367828,-8.333041)">
                <path d="M664.698,679.877C664.698,680.875 664.35,681.721 663.656,682.416C662.962,683.11 662.115,683.457 661.117,683.457C660.14,683.457 659.305,683.105 658.61,682.399C657.916,681.694 657.569,680.853 657.569,679.877C657.569,678.9 657.916,678.059 658.61,677.354C659.305,676.649 660.14,676.296 661.117,676.296C662.115,676.296 662.962,676.643 663.656,677.338C664.35,678.032 664.698,678.878 664.698,679.877ZM664.698,665.554C664.698,670.263 662.278,672.618 657.439,672.618L649.431,672.618L649.431,665.619L653.077,665.619C654.791,665.641 655.854,665.554 656.267,665.358C657.135,664.968 657.569,663.991 657.569,662.429L657.569,651.719L664.698,651.719L664.698,665.554Z" style="fill:white;"/>
            </g>
            <g transform="matrix(1,0,0,1,-179.171348,82.253737)">
                <path d="M1464.338,784.194L1447.805,756.927L1457.271,756.927L1468.605,776.727L1480.005,756.927L1489.005,756.927L1472.338,784.194L1472.338,804.194L1464.338,804.194L1464.338,784.194Z"/>
            </g>
            <g transform="matrix(1,0,0,1,-179.171348,82.253737)">
                <path d="M1522.805,804.194L1518.338,792.327L1498.338,792.327L1493.938,804.194L1485.471,804.194L1503.871,756.927L1513.138,756.927L1531.538,804.194L1522.805,804.194ZM1508.338,765.594L1501.138,784.927L1515.538,784.927L1508.338,765.594Z"/>
            </g>
            <g transform="matrix(1,0,0,1,-179.171348,82.253737)">
                <path d="M1544.538,784.194L1528.005,756.927L1537.471,756.927L1548.805,776.727L1560.205,756.927L1569.205,756.927L1552.538,784.194L1552.538,804.194L1544.538,804.194L1544.538,784.194Z"/>
            </g>
            <g transform="matrix(1,0,0,1,-179.171348,82.253737)">
                <path d="M1603.005,804.194L1598.538,792.327L1578.538,792.327L1574.138,804.194L1565.671,804.194L1584.071,756.927L1593.338,756.927L1611.738,804.194L1603.005,804.194ZM1588.538,765.594L1581.338,784.927L1595.738,784.927L1588.538,765.594Z"/>
            </g>
            <g transform="matrix(1,0,0,1,-179.171348,82.253737)">
                <path d="M1648.671,767.994L1641.471,770.261C1641.16,768.438 1640.249,766.772 1638.738,765.261C1637.227,763.749 1635.049,762.994 1632.205,762.994C1629.849,762.994 1627.905,763.661 1626.371,764.994C1624.838,766.327 1624.071,767.927 1624.071,769.794C1624.071,773.038 1625.916,775.061 1629.605,775.861L1636.405,777.261C1640.494,778.061 1643.649,779.683 1645.871,782.127C1648.094,784.572 1649.205,787.483 1649.205,790.861C1649.205,794.772 1647.705,798.138 1644.705,800.961C1641.705,803.783 1637.627,805.194 1632.471,805.194C1626.916,805.194 1622.582,803.738 1619.471,800.827C1616.36,797.916 1614.605,794.527 1614.205,790.661L1621.671,788.527C1621.938,791.194 1623.005,793.438 1624.871,795.261C1626.738,797.083 1629.271,797.994 1632.471,797.994C1635.227,797.994 1637.349,797.383 1638.838,796.161C1640.327,794.938 1641.071,793.372 1641.071,791.461C1641.071,789.905 1640.516,788.561 1639.405,787.427C1638.294,786.294 1636.738,785.505 1634.738,785.061L1628.071,783.661C1624.382,782.905 1621.46,781.372 1619.305,779.061C1617.149,776.749 1616.071,773.861 1616.071,770.394C1616.071,766.438 1617.649,763.038 1620.805,760.194C1623.96,757.349 1627.738,755.927 1632.138,755.927C1637.16,755.927 1641.005,757.138 1643.671,759.561C1646.338,761.983 1648.005,764.794 1648.671,767.994Z"/>
            </g>
            <g transform="matrix(1,0,0,1,-179.171348,82.253737)">
                <path d="M1689.205,804.194L1684.738,792.327L1664.738,792.327L1660.338,804.194L1651.871,804.194L1670.271,756.927L1679.538,756.927L1697.938,804.194L1689.205,804.194ZM1674.738,765.594L1667.538,784.927L1681.938,784.927L1674.738,765.594Z"/>
            </g>
            <g transform="matrix(1,0,0,1,-179.171348,82.253737)">
                <path d="M1743.938,804.194L1735.605,804.194L1712.271,768.394L1712.271,804.194L1704.271,804.194L1704.271,756.927L1714.471,756.927L1735.938,790.461L1735.938,756.927L1743.938,756.927L1743.938,804.194Z"/>
            </g>
            <g transform="matrix(1,0,0,1,-179.171348,82.253737)">
                <path d="M1800.805,804.194L1786.071,783.727L1779.805,790.594L1779.805,804.194L1771.805,804.194L1771.805,756.927L1779.805,756.927L1779.805,779.594L1800.138,756.927L1810.671,756.927L1791.538,777.794L1810.871,804.194L1800.805,804.194Z"/>
            </g>
            <g transform="matrix(1,0,0,1,-179.171348,82.253737)">
                <path d="M1849.338,804.194L1844.871,792.327L1824.871,792.327L1820.471,804.194L1812.005,804.194L1830.405,756.927L1839.671,756.927L1858.071,804.194L1849.338,804.194ZM1834.871,765.594L1827.671,784.927L1842.071,784.927L1834.871,765.594Z"/>
            </g>
            <g transform="matrix(1,0,0,1,-179.171348,82.253737)">
                <path d="M1860.538,789.927L1860.538,786.861L1868.338,785.261L1868.338,789.661C1868.338,792.327 1869.005,794.327 1870.338,795.661C1871.671,796.994 1873.427,797.661 1875.605,797.661C1877.738,797.661 1879.427,796.983 1880.671,795.627C1881.916,794.272 1882.538,792.394 1882.538,789.994L1882.538,756.927L1890.538,756.927L1890.538,789.794C1890.538,794.105 1889.16,797.749 1886.405,800.727C1883.649,803.705 1880.071,805.194 1875.671,805.194C1871.049,805.194 1867.371,803.805 1864.638,801.027C1861.905,798.249 1860.538,794.549 1860.538,789.927Z"/>
            </g>
            <g transform="matrix(1,0,0,1,-179.171348,82.253737)">
                <rect x="1901.338" y="756.927" width="8.133" height="47.267"/>
            </g>
            <g transform="matrix(1,0,0,1,-179.171348,82.253737)">
                <path d="M1953.138,804.194L1948.671,792.327L1928.671,792.327L1924.271,804.194L1915.805,804.194L1934.205,756.927L1943.471,756.927L1961.871,804.194L1953.138,804.194ZM1938.671,765.594L1931.471,784.927L1945.871,784.927L1938.671,765.594Z"/>
            </g>
            <g transform="matrix(1,0,0,1,-179.171348,82.253737)">
                <path d="M2007.871,804.194L1999.538,804.194L1976.205,768.394L1976.205,804.194L1968.205,804.194L1968.205,756.927L1978.405,756.927L1999.871,790.461L1999.871,756.927L2007.871,756.927L2007.871,804.194Z"/>
            </g>
            <g transform="matrix(1,0,0,1,-139.638015,150.074683)">
                <path d="M1452.805,756.927L1469.071,756.927C1473.516,756.927 1477.027,758.105 1479.605,760.461C1482.182,762.816 1483.471,765.883 1483.471,769.661C1483.471,772.105 1482.827,774.227 1481.538,776.027C1480.249,777.827 1478.56,779.105 1476.471,779.861C1479.005,780.527 1481.049,781.883 1482.605,783.927C1484.16,785.972 1484.938,788.372 1484.938,791.127C1484.938,794.949 1483.582,798.083 1480.871,800.527C1478.16,802.972 1474.627,804.194 1470.271,804.194L1452.805,804.194L1452.805,756.927ZM1460.738,776.927L1468.005,776.927C1470.316,776.927 1472.138,776.327 1473.471,775.127C1474.805,773.927 1475.471,772.327 1475.471,770.327C1475.471,768.283 1474.794,766.672 1473.438,765.494C1472.082,764.316 1470.205,763.727 1467.805,763.727L1460.738,763.727L1460.738,776.927ZM1460.738,797.394L1468.871,797.394C1471.271,797.394 1473.194,796.783 1474.638,795.561C1476.082,794.338 1476.805,792.683 1476.805,790.594C1476.805,788.505 1476.127,786.827 1474.771,785.561C1473.416,784.294 1471.538,783.661 1469.138,783.661L1460.738,783.661L1460.738,797.394Z"/>
            </g>
            <g transform="matrix(1,0,0,1,-139.638015,150.074683)">
                <path d="M1503.271,767.961C1500.16,770.961 1498.605,775.149 1498.605,780.527C1498.605,785.905 1500.16,790.094 1503.271,793.094C1506.382,796.094 1510.094,797.594 1514.405,797.594C1518.716,797.594 1522.438,796.094 1525.571,793.094C1528.705,790.094 1530.271,785.905 1530.271,780.527C1530.271,775.149 1528.705,770.961 1525.571,767.961C1522.438,764.961 1518.716,763.461 1514.405,763.461C1510.094,763.461 1506.382,764.961 1503.271,767.961ZM1493.838,793.727C1491.549,789.905 1490.405,785.505 1490.405,780.527C1490.405,775.549 1491.549,771.161 1493.838,767.361C1496.127,763.561 1499.071,760.705 1502.671,758.794C1506.271,756.883 1510.182,755.927 1514.405,755.927C1518.627,755.927 1522.538,756.883 1526.138,758.794C1529.738,760.705 1532.694,763.561 1535.005,767.361C1537.316,771.161 1538.471,775.549 1538.471,780.527C1538.471,785.505 1537.316,789.905 1535.005,793.727C1532.694,797.549 1529.738,800.416 1526.138,802.327C1522.538,804.238 1518.627,805.194 1514.405,805.194C1510.182,805.194 1506.271,804.238 1502.671,802.327C1499.071,800.416 1496.127,797.549 1493.838,793.727Z"/>
            </g>
            <g transform="matrix(1,0,0,1,-139.638015,150.074683)">
                <path d="M1542.605,789.927L1542.605,786.861L1550.405,785.261L1550.405,789.661C1550.405,792.327 1551.071,794.327 1552.405,795.661C1553.738,796.994 1555.494,797.661 1557.671,797.661C1559.805,797.661 1561.494,796.983 1562.738,795.627C1563.982,794.272 1564.605,792.394 1564.605,789.994L1564.605,756.927L1572.605,756.927L1572.605,789.794C1572.605,794.105 1571.227,797.749 1568.471,800.727C1565.716,803.705 1562.138,805.194 1557.738,805.194C1553.116,805.194 1549.438,803.805 1546.705,801.027C1543.971,798.249 1542.605,794.549 1542.605,789.927Z"/>
            </g>
            <g transform="matrix(1,0,0,1,-139.638015,150.074683)">
                <path d="M1613.871,804.194L1609.405,792.327L1589.405,792.327L1585.005,804.194L1576.538,804.194L1594.938,756.927L1604.205,756.927L1622.605,804.194L1613.871,804.194ZM1599.405,765.594L1592.205,784.927L1606.605,784.927L1599.405,765.594Z"/>
            </g>
            <g transform="matrix(1,0,0,1,-139.638015,150.074683)">
                <path d="M1697.471,804.194L1689.538,804.194L1689.538,769.394L1674.805,804.194L1667.871,804.194L1653.271,769.527L1653.271,804.194L1645.471,804.194L1645.471,756.927L1656.138,756.927L1671.471,792.994L1686.605,756.927L1697.471,756.927L1697.471,804.194Z"/>
            </g>
            <g transform="matrix(1,0,0,1,-139.638015,150.074683)">
                <path d="M1738.005,804.194L1708.805,804.194L1708.805,756.927L1738.005,756.927L1738.005,764.394L1716.805,764.394L1716.805,776.927L1736.005,776.927L1736.005,784.194L1716.805,784.194L1716.805,796.727L1738.005,796.727L1738.005,804.194Z"/>
            </g>
            <g transform="matrix(1,0,0,1,-139.638015,150.074683)">
                <path d="M1787.271,804.194L1778.938,804.194L1755.605,768.394L1755.605,804.194L1747.605,804.194L1747.605,756.927L1757.805,756.927L1779.271,790.461L1779.271,756.927L1787.271,756.927L1787.271,804.194Z"/>
            </g>
            <g transform="matrix(1,0,0,1,-139.638015,150.074683)">
                <path d="M1840.538,804.194L1834.071,804.194L1833.471,798.194C1832.316,800.149 1830.494,801.805 1828.005,803.161C1825.516,804.516 1822.516,805.194 1819.005,805.194C1812.56,805.194 1807.071,802.961 1802.538,798.494C1798.005,794.027 1795.738,788.038 1795.738,780.527C1795.738,775.549 1796.882,771.149 1799.171,767.327C1801.46,763.505 1804.382,760.649 1807.938,758.761C1811.494,756.872 1815.36,755.927 1819.538,755.927C1825.005,755.927 1829.594,757.283 1833.305,759.994C1837.016,762.705 1839.538,766.149 1840.871,770.327L1833.338,773.194C1832.494,770.349 1830.871,767.994 1828.471,766.127C1826.071,764.261 1823.094,763.327 1819.538,763.327C1815.316,763.327 1811.649,764.816 1808.538,767.794C1805.427,770.772 1803.871,775.016 1803.871,780.527C1803.871,785.994 1805.382,790.249 1808.405,793.294C1811.427,796.338 1815.116,797.861 1819.471,797.861C1823.738,797.861 1826.994,796.738 1829.238,794.494C1831.482,792.249 1832.738,789.838 1833.005,787.261L1817.405,787.261L1817.405,780.261L1840.538,780.261L1840.538,804.194Z"/>
            </g>
            <g transform="matrix(1,0,0,1,-139.638015,150.074683)">
                <path d="M1882.538,804.194L1878.071,792.327L1858.071,792.327L1853.671,804.194L1845.205,804.194L1863.605,756.927L1872.871,756.927L1891.271,804.194L1882.538,804.194ZM1868.071,765.594L1860.871,784.927L1875.271,784.927L1868.071,765.594Z"/>
            </g>
            <g transform="matrix(1,0,0,1,-139.638015,150.074683)">
                <path d="M1893.738,789.927L1893.738,786.861L1901.538,785.261L1901.538,789.661C1901.538,792.327 1902.205,794.327 1903.538,795.661C1904.871,796.994 1906.627,797.661 1908.805,797.661C1910.938,797.661 1912.627,796.983 1913.871,795.627C1915.116,794.272 1915.738,792.394 1915.738,789.994L1915.738,756.927L1923.738,756.927L1923.738,789.794C1923.738,794.105 1922.36,797.749 1919.605,800.727C1916.849,803.705 1913.271,805.194 1908.871,805.194C1904.249,805.194 1900.571,803.805 1897.838,801.027C1895.105,798.249 1893.738,794.549 1893.738,789.927Z"/>
            </g>
            <g transform="matrix(1,0,0,1,-139.638015,150.074683)">
                <rect x="1934.538" y="756.927" width="8.133" height="47.267"/>
            </g>
        </g>
    </g>
</svg>
